<?xml version="1.0" encoding="UTF-8" standalone="no"?>
<!DOCTYPE svg PUBLIC "-//W3C//DTD SVG 1.1//EN"
 "http://www.w3.org/Graphics/SVG/1.1/DTD/svg11.dtd">
<!-- Generated by graphviz version 2.40.1 (20161225.0304)
 -->
<!-- Title: undefined Pages: 1 -->
<svg width="1593pt" height="1259pt"
 viewBox="0.00 0.00 1592.60 1258.60" xmlns="http://www.w3.org/2000/svg" xmlns:xlink="http://www.w3.org/1999/xlink">
<g id="graph0" class="graph" transform="scale(1 1) rotate(0) translate(28.8 1208.8)">
<title>undefined</title>
<polygon fill="#ffffff" stroke="transparent" points="-28.8,49.8 -28.8,-1208.8 1563.8,-1208.8 1563.8,49.8 -28.8,49.8"/>
<text text-anchor="start" x="739.5" y="12.6" font-family="Helvetica,sans-Serif" font-weight="bold" font-size="12.00" fill="#000000">db.sqlite3</text>
<!-- django_migrations -->
<g id="node1" class="node">
<title>django_migrations</title>
<path fill="none" stroke="#000000" d="M468.2381,-342.6409C468.2381,-342.6409 588.2381,-342.6409 588.2381,-342.6409 594.2381,-342.6409 600.2381,-348.6409 600.2381,-354.6409 600.2381,-354.6409 600.2381,-434.6409 600.2381,-434.6409 600.2381,-440.6409 594.2381,-446.6409 588.2381,-446.6409 588.2381,-446.6409 468.2381,-446.6409 468.2381,-446.6409 462.2381,-446.6409 456.2381,-440.6409 456.2381,-434.6409 456.2381,-434.6409 456.2381,-354.6409 456.2381,-354.6409 456.2381,-348.6409 462.2381,-342.6409 468.2381,-342.6409"/>
<text text-anchor="start" x="468.2381" y="-426.2409" font-family="Helvetica,sans-Serif" font-weight="bold" font-size="13.00" fill="#000000">django_migrations</text>
<polyline fill="none" stroke="#000000" points="456.2381,-416.6409 600.2381,-416.6409 "/>
<text text-anchor="start" x="463.2381" y="-403.0409" font-family="Helvetica,sans-Serif" font-size="12.00" fill="#000000">id* </text>
<text text-anchor="start" x="481.2381" y="-403.0409" font-family="Helvetica,sans-Serif" font-weight="bold" font-size="12.00" fill="#000000">integer</text>
<text text-anchor="start" x="463.2381" y="-386.0409" font-family="Helvetica,sans-Serif" font-size="12.00" fill="#000000">app </text>
<text text-anchor="start" x="487.2381" y="-386.0409" font-family="Helvetica,sans-Serif" font-weight="bold" font-size="12.00" fill="#000000">varchar(255)</text>
<text text-anchor="start" x="463.2381" y="-369.0409" font-family="Helvetica,sans-Serif" font-size="12.00" fill="#000000">name </text>
<text text-anchor="start" x="497.2381" y="-369.0409" font-family="Helvetica,sans-Serif" font-weight="bold" font-size="12.00" fill="#000000">varchar(255)</text>
<text text-anchor="start" x="463.2381" y="-352.0409" font-family="Helvetica,sans-Serif" font-size="12.00" fill="#000000">applied </text>
<text text-anchor="start" x="506.2381" y="-352.0409" font-family="Helvetica,sans-Serif" font-weight="bold" font-size="12.00" fill="#000000">datetime</text>
</g>
<!-- sqlite_sequence -->
<g id="node2" class="node">
<title>sqlite_sequence</title>
<path fill="none" stroke="#000000" d="M411.2381,-684.6409C411.2381,-684.6409 531.2381,-684.6409 531.2381,-684.6409 537.2381,-684.6409 543.2381,-690.6409 543.2381,-696.6409 543.2381,-696.6409 543.2381,-742.6409 543.2381,-742.6409 543.2381,-748.6409 537.2381,-754.6409 531.2381,-754.6409 531.2381,-754.6409 411.2381,-754.6409 411.2381,-754.6409 405.2381,-754.6409 399.2381,-748.6409 399.2381,-742.6409 399.2381,-742.6409 399.2381,-696.6409 399.2381,-696.6409 399.2381,-690.6409 405.2381,-684.6409 411.2381,-684.6409"/>
<text text-anchor="start" x="418.2381" y="-734.2409" font-family="Helvetica,sans-Serif" font-weight="bold" font-size="13.00" fill="#000000">sqlite_sequence</text>
<polyline fill="none" stroke="#000000" points="399.2381,-724.6409 543.2381,-724.6409 "/>
<text text-anchor="start" x="406.2381" y="-711.0409" font-family="Helvetica,sans-Serif" font-size="12.00" fill="#000000">name </text>
<text text-anchor="start" x="440.2381" y="-711.0409" font-family="Helvetica,sans-Serif" font-weight="bold" font-size="12.00" fill="#000000"> </text>
<text text-anchor="start" x="406.2381" y="-694.0409" font-family="Helvetica,sans-Serif" font-size="12.00" fill="#000000">seq </text>
<text text-anchor="start" x="429.2381" y="-694.0409" font-family="Helvetica,sans-Serif" font-weight="bold" font-size="12.00" fill="#000000"> </text>
</g>
<!-- auth_group_permissions -->
<g id="node3" class="node">
<title>auth_group_permissions</title>
<path fill="none" stroke="#000000" d="M12.205,-208.845C12.205,-208.845 163.205,-208.845 163.205,-208.845 169.205,-208.845 175.205,-214.845 175.205,-220.845 175.205,-220.845 175.205,-283.845 175.205,-283.845 175.205,-289.845 169.205,-295.845 163.205,-295.845 163.205,-295.845 12.205,-295.845 12.205,-295.845 6.205,-295.845 .205,-289.845 .205,-283.845 .205,-283.845 .205,-220.845 .205,-220.845 .205,-214.845 6.205,-208.845 12.205,-208.845"/>
<text text-anchor="start" x="7.705" y="-275.445" font-family="Helvetica,sans-Serif" font-weight="bold" font-size="13.00" fill="#000000">auth_group_permissions</text>
<polyline fill="none" stroke="#000000" points=".205,-265.845 175.205,-265.845 "/>
<text text-anchor="start" x="22.705" y="-251.745" font-family="Helvetica,sans-Serif" font-size="12.00" fill="#000000">id* </text>
<text text-anchor="start" x="40.705" y="-251.745" font-family="Helvetica,sans-Serif" font-weight="bold" font-size="12.00" fill="#000000">integer</text>
<text text-anchor="start" x="22.705" y="-234.745" font-family="Helvetica,sans-Serif" font-size="12.00" fill="#000000">group_id </text>
<text text-anchor="start" x="73.705" y="-234.745" font-family="Helvetica,sans-Serif" font-weight="bold" font-size="12.00" fill="#000000">integer</text>
<text text-anchor="start" x="22.705" y="-217.745" font-family="Helvetica,sans-Serif" font-size="12.00" fill="#000000">permission_id </text>
<text text-anchor="start" x="101.705" y="-217.745" font-family="Helvetica,sans-Serif" font-weight="bold" font-size="12.00" fill="#000000">integer</text>
</g>
<!-- auth_permission -->
<g id="node8" class="node">
<title>auth_permission</title>
<path fill="none" stroke="#000000" d="M171.2512,-608.7668C171.2512,-608.7668 293.2512,-608.7668 293.2512,-608.7668 299.2512,-608.7668 305.2512,-614.7668 305.2512,-620.7668 305.2512,-620.7668 305.2512,-700.7668 305.2512,-700.7668 305.2512,-706.7668 299.2512,-712.7668 293.2512,-712.7668 293.2512,-712.7668 171.2512,-712.7668 171.2512,-712.7668 165.2512,-712.7668 159.2512,-706.7668 159.2512,-700.7668 159.2512,-700.7668 159.2512,-620.7668 159.2512,-620.7668 159.2512,-614.7668 165.2512,-608.7668 171.2512,-608.7668"/>
<text text-anchor="start" x="178.2512" y="-692.3668" font-family="Helvetica,sans-Serif" font-weight="bold" font-size="13.00" fill="#000000">auth_permission</text>
<polyline fill="none" stroke="#000000" points="159.2512,-682.7668 305.2512,-682.7668 "/>
<text text-anchor="start" x="166.2512" y="-669.1668" font-family="Helvetica,sans-Serif" font-size="12.00" fill="#000000">id* </text>
<text text-anchor="start" x="184.2512" y="-669.1668" font-family="Helvetica,sans-Serif" font-weight="bold" font-size="12.00" fill="#000000">integer</text>
<text text-anchor="start" x="166.2512" y="-652.1668" font-family="Helvetica,sans-Serif" font-size="12.00" fill="#000000">content_type_id </text>
<text text-anchor="start" x="254.2512" y="-652.1668" font-family="Helvetica,sans-Serif" font-weight="bold" font-size="12.00" fill="#000000">integer</text>
<text text-anchor="start" x="166.2512" y="-635.1668" font-family="Helvetica,sans-Serif" font-size="12.00" fill="#000000">codename </text>
<text text-anchor="start" x="226.2512" y="-635.1668" font-family="Helvetica,sans-Serif" font-weight="bold" font-size="12.00" fill="#000000">varchar(100)</text>
<text text-anchor="start" x="166.2512" y="-618.1668" font-family="Helvetica,sans-Serif" font-size="12.00" fill="#000000">name </text>
<text text-anchor="start" x="200.2512" y="-618.1668" font-family="Helvetica,sans-Serif" font-weight="bold" font-size="12.00" fill="#000000">varchar(255)</text>
</g>
<!-- auth_group_permissions&#45;&gt;auth_permission -->
<g id="edge1" class="edge">
<title>auth_group_permissions&#45;&gt;auth_permission</title>
<path fill="none" stroke="#000000" stroke-width=".9" d="M103.174,-296.0533C129.1994,-369.5892 181.7723,-518.1364 211.1583,-601.1678"/>
<polygon fill="#000000" stroke="#000000" stroke-width=".9" points="208.5324,-602.1409 213.8411,-608.7484 213.8115,-600.2725 208.5324,-602.1409"/>
</g>
<!-- auth_group -->
<g id="node10" class="node">
<title>auth_group</title>
<path fill="none" stroke="#000000" d="M376.3121,-.7788C376.3121,-.7788 496.3121,-.7788 496.3121,-.7788 502.3121,-.7788 508.3121,-6.7788 508.3121,-12.7788 508.3121,-12.7788 508.3121,-58.7788 508.3121,-58.7788 508.3121,-64.7788 502.3121,-70.7788 496.3121,-70.7788 496.3121,-70.7788 376.3121,-70.7788 376.3121,-70.7788 370.3121,-70.7788 364.3121,-64.7788 364.3121,-58.7788 364.3121,-58.7788 364.3121,-12.7788 364.3121,-12.7788 364.3121,-6.7788 370.3121,-.7788 376.3121,-.7788"/>
<text text-anchor="start" x="399.3121" y="-50.3788" font-family="Helvetica,sans-Serif" font-weight="bold" font-size="13.00" fill="#000000">auth_group</text>
<polyline fill="none" stroke="#000000" points="364.3121,-40.7788 508.3121,-40.7788 "/>
<text text-anchor="start" x="371.3121" y="-27.1788" font-family="Helvetica,sans-Serif" font-size="12.00" fill="#000000">id* </text>
<text text-anchor="start" x="389.3121" y="-27.1788" font-family="Helvetica,sans-Serif" font-weight="bold" font-size="12.00" fill="#000000">integer</text>
<text text-anchor="start" x="371.3121" y="-10.1788" font-family="Helvetica,sans-Serif" font-size="12.00" fill="#000000">name </text>
<text text-anchor="start" x="405.3121" y="-10.1788" font-family="Helvetica,sans-Serif" font-weight="bold" font-size="12.00" fill="#000000">varchar(150)</text>
</g>
<!-- auth_group_permissions&#45;&gt;auth_group -->
<g id="edge2" class="edge">
<title>auth_group_permissions&#45;&gt;auth_group</title>
<path fill="none" stroke="#000000" stroke-width=".9" d="M157.8315,-208.7801C220.7221,-169.7104 312.1929,-112.8857 372.9274,-75.1554"/>
<polygon fill="#000000" stroke="#000000" stroke-width=".9" points="374.4912,-77.4803 379.8091,-70.8803 371.5361,-72.7235 374.4912,-77.4803"/>
</g>
<!-- auth_user_groups -->
<g id="node4" class="node">
<title>auth_user_groups</title>
<path fill="none" stroke="#000000" d="M734.5565,-197.2948C734.5565,-197.2948 854.5565,-197.2948 854.5565,-197.2948 860.5565,-197.2948 866.5565,-203.2948 866.5565,-209.2948 866.5565,-209.2948 866.5565,-272.2948 866.5565,-272.2948 866.5565,-278.2948 860.5565,-284.2948 854.5565,-284.2948 854.5565,-284.2948 734.5565,-284.2948 734.5565,-284.2948 728.5565,-284.2948 722.5565,-278.2948 722.5565,-272.2948 722.5565,-272.2948 722.5565,-209.2948 722.5565,-209.2948 722.5565,-203.2948 728.5565,-197.2948 734.5565,-197.2948"/>
<text text-anchor="start" x="735.5565" y="-263.8948" font-family="Helvetica,sans-Serif" font-weight="bold" font-size="13.00" fill="#000000">auth_user_groups</text>
<polyline fill="none" stroke="#000000" points="722.5565,-254.2948 866.5565,-254.2948 "/>
<text text-anchor="start" x="729.5565" y="-240.1948" font-family="Helvetica,sans-Serif" font-size="12.00" fill="#000000">id* </text>
<text text-anchor="start" x="747.5565" y="-240.1948" font-family="Helvetica,sans-Serif" font-weight="bold" font-size="12.00" fill="#000000">integer</text>
<text text-anchor="start" x="729.5565" y="-223.1948" font-family="Helvetica,sans-Serif" font-size="12.00" fill="#000000">user_id </text>
<text text-anchor="start" x="772.5565" y="-223.1948" font-family="Helvetica,sans-Serif" font-weight="bold" font-size="12.00" fill="#000000">integer</text>
<text text-anchor="start" x="729.5565" y="-206.1948" font-family="Helvetica,sans-Serif" font-size="12.00" fill="#000000">group_id </text>
<text text-anchor="start" x="780.5565" y="-206.1948" font-family="Helvetica,sans-Serif" font-weight="bold" font-size="12.00" fill="#000000">integer</text>
</g>
<!-- auth_user -->
<g id="node9" class="node">
<title>auth_user</title>
<path fill="none" stroke="#000000" d="M614.4314,-544.4547C614.4314,-544.4547 735.4314,-544.4547 735.4314,-544.4547 741.4314,-544.4547 747.4314,-550.4547 747.4314,-556.4547 747.4314,-556.4547 747.4314,-755.4547 747.4314,-755.4547 747.4314,-761.4547 741.4314,-767.4547 735.4314,-767.4547 735.4314,-767.4547 614.4314,-767.4547 614.4314,-767.4547 608.4314,-767.4547 602.4314,-761.4547 602.4314,-755.4547 602.4314,-755.4547 602.4314,-556.4547 602.4314,-556.4547 602.4314,-550.4547 608.4314,-544.4547 614.4314,-544.4547"/>
<text text-anchor="start" x="642.9314" y="-747.0547" font-family="Helvetica,sans-Serif" font-weight="bold" font-size="13.00" fill="#000000">auth_user</text>
<polyline fill="none" stroke="#000000" points="602.4314,-737.4547 747.4314,-737.4547 "/>
<text text-anchor="start" x="609.9314" y="-723.3547" font-family="Helvetica,sans-Serif" font-size="12.00" fill="#000000">id* </text>
<text text-anchor="start" x="627.9314" y="-723.3547" font-family="Helvetica,sans-Serif" font-weight="bold" font-size="12.00" fill="#000000">integer</text>
<text text-anchor="start" x="609.9314" y="-706.3547" font-family="Helvetica,sans-Serif" font-size="12.00" fill="#000000">password </text>
<text text-anchor="start" x="664.9314" y="-706.3547" font-family="Helvetica,sans-Serif" font-weight="bold" font-size="12.00" fill="#000000">varchar(128)</text>
<text text-anchor="start" x="609.9314" y="-689.3547" font-family="Helvetica,sans-Serif" font-size="12.00" fill="#000000">last_login </text>
<text text-anchor="start" x="664.9314" y="-689.3547" font-family="Helvetica,sans-Serif" font-weight="bold" font-size="12.00" fill="#000000">datetime</text>
<text text-anchor="start" x="609.9314" y="-672.3547" font-family="Helvetica,sans-Serif" font-size="12.00" fill="#000000">is_superuser </text>
<text text-anchor="start" x="682.9314" y="-672.3547" font-family="Helvetica,sans-Serif" font-weight="bold" font-size="12.00" fill="#000000">bool</text>
<text text-anchor="start" x="609.9314" y="-655.3547" font-family="Helvetica,sans-Serif" font-size="12.00" fill="#000000">username </text>
<text text-anchor="start" x="666.9314" y="-655.3547" font-family="Helvetica,sans-Serif" font-weight="bold" font-size="12.00" fill="#000000">varchar(150)</text>
<text text-anchor="start" x="609.9314" y="-638.3547" font-family="Helvetica,sans-Serif" font-size="12.00" fill="#000000">first_name </text>
<text text-anchor="start" x="668.9314" y="-638.3547" font-family="Helvetica,sans-Serif" font-weight="bold" font-size="12.00" fill="#000000">varchar(30)</text>
<text text-anchor="start" x="609.9314" y="-621.3547" font-family="Helvetica,sans-Serif" font-size="12.00" fill="#000000">email </text>
<text text-anchor="start" x="642.9314" y="-621.3547" font-family="Helvetica,sans-Serif" font-weight="bold" font-size="12.00" fill="#000000">varchar(254)</text>
<text text-anchor="start" x="609.9314" y="-604.3547" font-family="Helvetica,sans-Serif" font-size="12.00" fill="#000000">is_staff </text>
<text text-anchor="start" x="650.9314" y="-604.3547" font-family="Helvetica,sans-Serif" font-weight="bold" font-size="12.00" fill="#000000">bool</text>
<text text-anchor="start" x="609.9314" y="-587.3547" font-family="Helvetica,sans-Serif" font-size="12.00" fill="#000000">is_active </text>
<text text-anchor="start" x="660.9314" y="-587.3547" font-family="Helvetica,sans-Serif" font-weight="bold" font-size="12.00" fill="#000000">bool</text>
<text text-anchor="start" x="609.9314" y="-570.3547" font-family="Helvetica,sans-Serif" font-size="12.00" fill="#000000">date_joined </text>
<text text-anchor="start" x="676.9314" y="-570.3547" font-family="Helvetica,sans-Serif" font-weight="bold" font-size="12.00" fill="#000000">datetime</text>
<text text-anchor="start" x="609.9314" y="-553.3547" font-family="Helvetica,sans-Serif" font-size="12.00" fill="#000000">last_name </text>
<text text-anchor="start" x="668.9314" y="-553.3547" font-family="Helvetica,sans-Serif" font-weight="bold" font-size="12.00" fill="#000000">varchar(150)</text>
</g>
<!-- auth_user_groups&#45;&gt;auth_user -->
<g id="edge4" class="edge">
<title>auth_user_groups&#45;&gt;auth_user</title>
<path fill="none" stroke="#000000" stroke-width=".9" d="M781.9806,-284.4395C764.9075,-343.692 733.7364,-451.8715 709.4169,-536.2724"/>
<polygon fill="#000000" stroke="#000000" stroke-width=".9" points="706.6845,-535.6428 707.1599,-544.1053 712.0656,-537.1933 706.6845,-535.6428"/>
</g>
<!-- auth_user_groups&#45;&gt;auth_group -->
<g id="edge3" class="edge">
<title>auth_user_groups&#45;&gt;auth_group</title>
<path fill="none" stroke="#000000" stroke-width=".9" d="M722.4913,-199.5534C658.9442,-163.1866 567.0019,-110.57 504.6102,-74.8644"/>
<polygon fill="#000000" stroke="#000000" stroke-width=".9" points="505.8657,-72.3569 497.5315,-70.8135 503.0842,-77.2173 505.8657,-72.3569"/>
</g>
<!-- auth_user_user_permissions -->
<g id="node5" class="node">
<title>auth_user_user_permissions</title>
<path fill="none" stroke="#000000" d="M363.9451,-489.8237C363.9451,-489.8237 540.9451,-489.8237 540.9451,-489.8237 546.9451,-489.8237 552.9451,-495.8237 552.9451,-501.8237 552.9451,-501.8237 552.9451,-564.8237 552.9451,-564.8237 552.9451,-570.8237 546.9451,-576.8237 540.9451,-576.8237 540.9451,-576.8237 363.9451,-576.8237 363.9451,-576.8237 357.9451,-576.8237 351.9451,-570.8237 351.9451,-564.8237 351.9451,-564.8237 351.9451,-501.8237 351.9451,-501.8237 351.9451,-495.8237 357.9451,-489.8237 363.9451,-489.8237"/>
<text text-anchor="start" x="359.4451" y="-556.4237" font-family="Helvetica,sans-Serif" font-weight="bold" font-size="13.00" fill="#000000">auth_user_user_permissions</text>
<polyline fill="none" stroke="#000000" points="351.9451,-546.8237 552.9451,-546.8237 "/>
<text text-anchor="start" x="387.4451" y="-532.7237" font-family="Helvetica,sans-Serif" font-size="12.00" fill="#000000">id* </text>
<text text-anchor="start" x="405.4451" y="-532.7237" font-family="Helvetica,sans-Serif" font-weight="bold" font-size="12.00" fill="#000000">integer</text>
<text text-anchor="start" x="387.4451" y="-515.7237" font-family="Helvetica,sans-Serif" font-size="12.00" fill="#000000">user_id </text>
<text text-anchor="start" x="430.4451" y="-515.7237" font-family="Helvetica,sans-Serif" font-weight="bold" font-size="12.00" fill="#000000">integer</text>
<text text-anchor="start" x="387.4451" y="-498.7237" font-family="Helvetica,sans-Serif" font-size="12.00" fill="#000000">permission_id </text>
<text text-anchor="start" x="466.4451" y="-498.7237" font-family="Helvetica,sans-Serif" font-weight="bold" font-size="12.00" fill="#000000">integer</text>
</g>
<!-- auth_user_user_permissions&#45;&gt;auth_permission -->
<g id="edge5" class="edge">
<title>auth_user_user_permissions&#45;&gt;auth_permission</title>
<path fill="none" stroke="#000000" stroke-width=".9" d="M377.2827,-576.8259C356.463,-588.8759 333.784,-602.002 312.6772,-614.2181"/>
<polygon fill="#000000" stroke="#000000" stroke-width=".9" points="311.1058,-611.8924 305.5845,-618.3232 313.9111,-616.7391 311.1058,-611.8924"/>
</g>
<!-- auth_user_user_permissions&#45;&gt;auth_user -->
<g id="edge6" class="edge">
<title>auth_user_user_permissions&#45;&gt;auth_user</title>
<path fill="none" stroke="#000000" stroke-width=".9" d="M531.5119,-576.9041C552.1814,-588.2968 574.4725,-600.5833 595.1776,-611.9956"/>
<polygon fill="#000000" stroke="#000000" stroke-width=".9" points="594.0719,-614.5833 602.4298,-615.9929 596.7752,-609.679 594.0719,-614.5833"/>
</g>
<!-- django_admin_log -->
<g id="node6" class="node">
<title>django_admin_log</title>
<path fill="none" stroke="#000000" d="M277.0993,-876.6824C277.0993,-876.6824 431.0993,-876.6824 431.0993,-876.6824 437.0993,-876.6824 443.0993,-882.6824 443.0993,-888.6824 443.0993,-888.6824 443.0993,-1036.6824 443.0993,-1036.6824 443.0993,-1042.6824 437.0993,-1048.6824 431.0993,-1048.6824 431.0993,-1048.6824 277.0993,-1048.6824 277.0993,-1048.6824 271.0993,-1048.6824 265.0993,-1042.6824 265.0993,-1036.6824 265.0993,-1036.6824 265.0993,-888.6824 265.0993,-888.6824 265.0993,-882.6824 271.0993,-876.6824 277.0993,-876.6824"/>
<text text-anchor="start" x="295.0993" y="-1028.2824" font-family="Helvetica,sans-Serif" font-weight="bold" font-size="13.00" fill="#000000">django_admin_log</text>
<polyline fill="none" stroke="#000000" points="265.0993,-1018.6824 443.0993,-1018.6824 "/>
<text text-anchor="start" x="272.0993" y="-1005.0824" font-family="Helvetica,sans-Serif" font-size="12.00" fill="#000000">id* </text>
<text text-anchor="start" x="290.0993" y="-1005.0824" font-family="Helvetica,sans-Serif" font-weight="bold" font-size="12.00" fill="#000000">integer</text>
<text text-anchor="start" x="272.0993" y="-988.0824" font-family="Helvetica,sans-Serif" font-size="12.00" fill="#000000">action_time </text>
<text text-anchor="start" x="337.0993" y="-988.0824" font-family="Helvetica,sans-Serif" font-weight="bold" font-size="12.00" fill="#000000">datetime</text>
<text text-anchor="start" x="272.0993" y="-971.0824" font-family="Helvetica,sans-Serif" font-size="12.00" fill="#000000">object_id </text>
<text text-anchor="start" x="324.0993" y="-971.0824" font-family="Helvetica,sans-Serif" font-weight="bold" font-size="12.00" fill="#000000">text</text>
<text text-anchor="start" x="272.0993" y="-954.0824" font-family="Helvetica,sans-Serif" font-size="12.00" fill="#000000">object_repr </text>
<text text-anchor="start" x="336.0993" y="-954.0824" font-family="Helvetica,sans-Serif" font-weight="bold" font-size="12.00" fill="#000000">varchar(200)</text>
<text text-anchor="start" x="272.0993" y="-937.0824" font-family="Helvetica,sans-Serif" font-size="12.00" fill="#000000">change_message </text>
<text text-anchor="start" x="371.0993" y="-937.0824" font-family="Helvetica,sans-Serif" font-weight="bold" font-size="12.00" fill="#000000">text</text>
<text text-anchor="start" x="272.0993" y="-920.0824" font-family="Helvetica,sans-Serif" font-size="12.00" fill="#000000">content_type_id </text>
<text text-anchor="start" x="360.0993" y="-920.0824" font-family="Helvetica,sans-Serif" font-weight="bold" font-size="12.00" fill="#000000">integer</text>
<text text-anchor="start" x="272.0993" y="-903.0824" font-family="Helvetica,sans-Serif" font-size="12.00" fill="#000000">user_id </text>
<text text-anchor="start" x="315.0993" y="-903.0824" font-family="Helvetica,sans-Serif" font-weight="bold" font-size="12.00" fill="#000000">integer</text>
<text text-anchor="start" x="272.0993" y="-886.0824" font-family="Helvetica,sans-Serif" font-size="12.00" fill="#000000">action_flag </text>
<text text-anchor="start" x="334.0993" y="-886.0824" font-family="Helvetica,sans-Serif" font-weight="bold" font-size="12.00" fill="#000000">smallint unsigned</text>
</g>
<!-- django_content_type -->
<g id="node7" class="node">
<title>django_content_type</title>
<path fill="none" stroke="#000000" d="M487.1189,-923.8788C487.1189,-923.8788 613.1189,-923.8788 613.1189,-923.8788 619.1189,-923.8788 625.1189,-929.8788 625.1189,-935.8788 625.1189,-935.8788 625.1189,-998.8788 625.1189,-998.8788 625.1189,-1004.8788 619.1189,-1010.8788 613.1189,-1010.8788 613.1189,-1010.8788 487.1189,-1010.8788 487.1189,-1010.8788 481.1189,-1010.8788 475.1189,-1004.8788 475.1189,-998.8788 475.1189,-998.8788 475.1189,-935.8788 475.1189,-935.8788 475.1189,-929.8788 481.1189,-923.8788 487.1189,-923.8788"/>
<text text-anchor="start" x="482.1189" y="-990.4788" font-family="Helvetica,sans-Serif" font-weight="bold" font-size="13.00" fill="#000000">django_content_type</text>
<polyline fill="none" stroke="#000000" points="475.1189,-980.8788 625.1189,-980.8788 "/>
<text text-anchor="start" x="485.1189" y="-966.7788" font-family="Helvetica,sans-Serif" font-size="12.00" fill="#000000">id* </text>
<text text-anchor="start" x="503.1189" y="-966.7788" font-family="Helvetica,sans-Serif" font-weight="bold" font-size="12.00" fill="#000000">integer</text>
<text text-anchor="start" x="485.1189" y="-949.7788" font-family="Helvetica,sans-Serif" font-size="12.00" fill="#000000">app_label </text>
<text text-anchor="start" x="542.1189" y="-949.7788" font-family="Helvetica,sans-Serif" font-weight="bold" font-size="12.00" fill="#000000">varchar(100)</text>
<text text-anchor="start" x="485.1189" y="-932.7788" font-family="Helvetica,sans-Serif" font-size="12.00" fill="#000000">model </text>
<text text-anchor="start" x="522.1189" y="-932.7788" font-family="Helvetica,sans-Serif" font-weight="bold" font-size="12.00" fill="#000000">varchar(100)</text>
</g>
<!-- django_admin_log&#45;&gt;django_content_type -->
<g id="edge8" class="edge">
<title>django_admin_log&#45;&gt;django_content_type</title>
<path fill="none" stroke="#000000" stroke-width=".9" d="M443.2186,-964.8176C451.0172,-965.0044 458.8914,-965.1931 466.6416,-965.3788"/>
<polygon fill="#000000" stroke="#000000" stroke-width=".9" points="466.9285,-968.1864 474.9933,-965.5789 467.0627,-962.588 466.9285,-968.1864"/>
</g>
<!-- django_admin_log&#45;&gt;auth_user -->
<g id="edge7" class="edge">
<title>django_admin_log&#45;&gt;auth_user</title>
<path fill="none" stroke="#000000" stroke-width=".9" d="M443.4689,-877.2416C491.4772,-831.3439 550.1244,-775.2749 596.372,-731.0605"/>
<polygon fill="#000000" stroke="#000000" stroke-width=".9" points="598.3885,-733.0063 602.2362,-725.4541 594.5187,-728.9586 598.3885,-733.0063"/>
</g>
<!-- auth_permission&#45;&gt;django_content_type -->
<g id="edge9" class="edge">
<title>auth_permission&#45;&gt;django_content_type</title>
<path fill="none" stroke="#000000" stroke-width=".9" d="M286.1731,-712.7794C345.5954,-770.0976 440.4664,-861.6091 498.8201,-917.8966"/>
<polygon fill="#000000" stroke="#000000" stroke-width=".9" points="496.9984,-920.0297 504.7002,-923.5685 500.8862,-915.9992 496.9984,-920.0297"/>
</g>
<!-- django_session -->
<g id="node11" class="node">
<title>django_session</title>
<path fill="none" stroke="#000000" d="M867.2381,-399.1409C867.2381,-399.1409 997.2381,-399.1409 997.2381,-399.1409 1003.2381,-399.1409 1009.2381,-405.1409 1009.2381,-411.1409 1009.2381,-411.1409 1009.2381,-474.1409 1009.2381,-474.1409 1009.2381,-480.1409 1003.2381,-486.1409 997.2381,-486.1409 997.2381,-486.1409 867.2381,-486.1409 867.2381,-486.1409 861.2381,-486.1409 855.2381,-480.1409 855.2381,-474.1409 855.2381,-474.1409 855.2381,-411.1409 855.2381,-411.1409 855.2381,-405.1409 861.2381,-399.1409 867.2381,-399.1409"/>
<text text-anchor="start" x="881.2381" y="-465.7409" font-family="Helvetica,sans-Serif" font-weight="bold" font-size="13.00" fill="#000000">django_session</text>
<polyline fill="none" stroke="#000000" points="855.2381,-456.1409 1009.2381,-456.1409 "/>
<text text-anchor="start" x="862.2381" y="-442.0409" font-family="Helvetica,sans-Serif" font-size="12.00" fill="#000000">session_key* </text>
<text text-anchor="start" x="937.2381" y="-442.0409" font-family="Helvetica,sans-Serif" font-weight="bold" font-size="12.00" fill="#000000">varchar(40)</text>
<text text-anchor="start" x="862.2381" y="-425.0409" font-family="Helvetica,sans-Serif" font-size="12.00" fill="#000000">session_data </text>
<text text-anchor="start" x="937.2381" y="-425.0409" font-family="Helvetica,sans-Serif" font-weight="bold" font-size="12.00" fill="#000000">text</text>
<text text-anchor="start" x="862.2381" y="-408.0409" font-family="Helvetica,sans-Serif" font-size="12.00" fill="#000000">expire_date </text>
<text text-anchor="start" x="929.2381" y="-408.0409" font-family="Helvetica,sans-Serif" font-weight="bold" font-size="12.00" fill="#000000">datetime</text>
</g>
<!-- accounts_tasks -->
<g id="node12" class="node">
<title>accounts_tasks</title>
<path fill="none" stroke="#000000" d="M1142.2858,-700.9037C1142.2858,-700.9037 1262.2858,-700.9037 1262.2858,-700.9037 1268.2858,-700.9037 1274.2858,-706.9037 1274.2858,-712.9037 1274.2858,-712.9037 1274.2858,-843.9037 1274.2858,-843.9037 1274.2858,-849.9037 1268.2858,-855.9037 1262.2858,-855.9037 1262.2858,-855.9037 1142.2858,-855.9037 1142.2858,-855.9037 1136.2858,-855.9037 1130.2858,-849.9037 1130.2858,-843.9037 1130.2858,-843.9037 1130.2858,-712.9037 1130.2858,-712.9037 1130.2858,-706.9037 1136.2858,-700.9037 1142.2858,-700.9037"/>
<text text-anchor="start" x="1151.2858" y="-835.5037" font-family="Helvetica,sans-Serif" font-weight="bold" font-size="13.00" fill="#000000">accounts_tasks</text>
<polyline fill="none" stroke="#000000" points="1130.2858,-825.9037 1274.2858,-825.9037 "/>
<text text-anchor="start" x="1137.2858" y="-811.8037" font-family="Helvetica,sans-Serif" font-size="12.00" fill="#000000">id* </text>
<text text-anchor="start" x="1155.2858" y="-811.8037" font-family="Helvetica,sans-Serif" font-weight="bold" font-size="12.00" fill="#000000">integer</text>
<text text-anchor="start" x="1137.2858" y="-794.8037" font-family="Helvetica,sans-Serif" font-size="12.00" fill="#000000">name </text>
<text text-anchor="start" x="1171.2858" y="-794.8037" font-family="Helvetica,sans-Serif" font-weight="bold" font-size="12.00" fill="#000000">varchar(200)</text>
<text text-anchor="start" x="1137.2858" y="-777.8037" font-family="Helvetica,sans-Serif" font-size="12.00" fill="#000000">date_created </text>
<text text-anchor="start" x="1210.2858" y="-777.8037" font-family="Helvetica,sans-Serif" font-weight="bold" font-size="12.00" fill="#000000">datetime</text>
<text text-anchor="start" x="1137.2858" y="-760.8037" font-family="Helvetica,sans-Serif" font-size="12.00" fill="#000000">time_assigned </text>
<text text-anchor="start" x="1219.2858" y="-760.8037" font-family="Helvetica,sans-Serif" font-weight="bold" font-size="12.00" fill="#000000">integer</text>
<text text-anchor="start" x="1137.2858" y="-743.8037" font-family="Helvetica,sans-Serif" font-size="12.00" fill="#000000">due_date </text>
<text text-anchor="start" x="1191.2858" y="-743.8037" font-family="Helvetica,sans-Serif" font-weight="bold" font-size="12.00" fill="#000000">datetime</text>
<text text-anchor="start" x="1137.2858" y="-726.8037" font-family="Helvetica,sans-Serif" font-size="12.00" fill="#000000">created_by_id </text>
<text text-anchor="start" x="1216.2858" y="-726.8037" font-family="Helvetica,sans-Serif" font-weight="bold" font-size="12.00" fill="#000000">integer</text>
<text text-anchor="start" x="1137.2858" y="-709.8037" font-family="Helvetica,sans-Serif" font-size="12.00" fill="#000000">priority </text>
<text text-anchor="start" x="1177.2858" y="-709.8037" font-family="Helvetica,sans-Serif" font-weight="bold" font-size="12.00" fill="#000000">varchar(200)</text>
</g>
<!-- accounts_employee -->
<g id="node13" class="node">
<title>accounts_employee</title>
<path fill="none" stroke="#000000" d="M1396.5661,-836.0797C1396.5661,-836.0797 1522.5661,-836.0797 1522.5661,-836.0797 1528.5661,-836.0797 1534.5661,-842.0797 1534.5661,-848.0797 1534.5661,-848.0797 1534.5661,-979.0797 1534.5661,-979.0797 1534.5661,-985.0797 1528.5661,-991.0797 1522.5661,-991.0797 1522.5661,-991.0797 1396.5661,-991.0797 1396.5661,-991.0797 1390.5661,-991.0797 1384.5661,-985.0797 1384.5661,-979.0797 1384.5661,-979.0797 1384.5661,-848.0797 1384.5661,-848.0797 1384.5661,-842.0797 1390.5661,-836.0797 1396.5661,-836.0797"/>
<text text-anchor="start" x="1395.5661" y="-970.6797" font-family="Helvetica,sans-Serif" font-weight="bold" font-size="13.00" fill="#000000">accounts_employee</text>
<polyline fill="none" stroke="#000000" points="1384.5661,-961.0797 1534.5661,-961.0797 "/>
<text text-anchor="start" x="1391.5661" y="-946.9797" font-family="Helvetica,sans-Serif" font-size="12.00" fill="#000000">id* </text>
<text text-anchor="start" x="1409.5661" y="-946.9797" font-family="Helvetica,sans-Serif" font-weight="bold" font-size="12.00" fill="#000000">integer</text>
<text text-anchor="start" x="1391.5661" y="-929.9797" font-family="Helvetica,sans-Serif" font-size="12.00" fill="#000000">name </text>
<text text-anchor="start" x="1425.5661" y="-929.9797" font-family="Helvetica,sans-Serif" font-weight="bold" font-size="12.00" fill="#000000">varchar(200)</text>
<text text-anchor="start" x="1391.5661" y="-912.9797" font-family="Helvetica,sans-Serif" font-size="12.00" fill="#000000">phone </text>
<text text-anchor="start" x="1428.5661" y="-912.9797" font-family="Helvetica,sans-Serif" font-weight="bold" font-size="12.00" fill="#000000">varchar(200)</text>
<text text-anchor="start" x="1391.5661" y="-895.9797" font-family="Helvetica,sans-Serif" font-size="12.00" fill="#000000">email </text>
<text text-anchor="start" x="1424.5661" y="-895.9797" font-family="Helvetica,sans-Serif" font-weight="bold" font-size="12.00" fill="#000000">varchar(200)</text>
<text text-anchor="start" x="1391.5661" y="-878.9797" font-family="Helvetica,sans-Serif" font-size="12.00" fill="#000000">date_created </text>
<text text-anchor="start" x="1464.5661" y="-878.9797" font-family="Helvetica,sans-Serif" font-weight="bold" font-size="12.00" fill="#000000">datetime</text>
<text text-anchor="start" x="1391.5661" y="-861.9797" font-family="Helvetica,sans-Serif" font-size="12.00" fill="#000000">employee_id </text>
<text text-anchor="start" x="1464.5661" y="-861.9797" font-family="Helvetica,sans-Serif" font-weight="bold" font-size="12.00" fill="#000000">integer</text>
<text text-anchor="start" x="1391.5661" y="-844.9797" font-family="Helvetica,sans-Serif" font-size="12.00" fill="#000000">department </text>
<text text-anchor="start" x="1455.5661" y="-844.9797" font-family="Helvetica,sans-Serif" font-weight="bold" font-size="12.00" fill="#000000">varchar(200)</text>
</g>
<!-- accounts_tasks&#45;&gt;accounts_employee -->
<g id="edge10" class="edge">
<title>accounts_tasks&#45;&gt;accounts_employee</title>
<path fill="none" stroke="#000000" stroke-width=".9" d="M1274.2948,-816.2375C1306.2202,-833.0112 1343.9596,-852.8396 1377.0187,-870.209"/>
<polygon fill="#000000" stroke="#000000" stroke-width=".9" points="1376.0504,-872.8631 1384.4347,-874.1054 1378.655,-867.9057 1376.0504,-872.8631"/>
</g>
<!-- accounts_tasks_assignment -->
<g id="node14" class="node">
<title>accounts_tasks_assignment</title>
<path fill="none" stroke="#000000" d="M1047.8864,-989.021C1047.8864,-989.021 1221.8864,-989.021 1221.8864,-989.021 1227.8864,-989.021 1233.8864,-995.021 1233.8864,-1001.021 1233.8864,-1001.021 1233.8864,-1047.021 1233.8864,-1047.021 1233.8864,-1053.021 1227.8864,-1059.021 1221.8864,-1059.021 1221.8864,-1059.021 1047.8864,-1059.021 1047.8864,-1059.021 1041.8864,-1059.021 1035.8864,-1053.021 1035.8864,-1047.021 1035.8864,-1047.021 1035.8864,-1001.021 1035.8864,-1001.021 1035.8864,-995.021 1041.8864,-989.021 1047.8864,-989.021"/>
<text text-anchor="start" x="1042.8864" y="-1038.621" font-family="Helvetica,sans-Serif" font-weight="bold" font-size="13.00" fill="#000000">accounts_tasks_assignment</text>
<polyline fill="none" stroke="#000000" points="1035.8864,-1029.021 1233.8864,-1029.021 "/>
<text text-anchor="start" x="1069.8864" y="-1015.421" font-family="Helvetica,sans-Serif" font-size="12.00" fill="#000000">id* </text>
<text text-anchor="start" x="1087.8864" y="-1015.421" font-family="Helvetica,sans-Serif" font-weight="bold" font-size="12.00" fill="#000000">integer</text>
<text text-anchor="start" x="1069.8864" y="-998.421" font-family="Helvetica,sans-Serif" font-size="12.00" fill="#000000">task_id </text>
<text text-anchor="start" x="1111.8864" y="-998.421" font-family="Helvetica,sans-Serif" font-weight="bold" font-size="12.00" fill="#000000">integer</text>
</g>
<!-- accounts_tasks_assignment&#45;&gt;accounts_tasks -->
<g id="edge11" class="edge">
<title>accounts_tasks_assignment&#45;&gt;accounts_tasks</title>
<path fill="none" stroke="#000000" stroke-width=".9" d="M1144.5431,-988.83C1153.4525,-956.3625 1167.0399,-906.847 1178.7965,-864.0035"/>
<polygon fill="#000000" stroke="#000000" stroke-width=".9" points="1181.552,-864.5427 1180.9689,-856.0869 1176.1516,-863.0608 1181.552,-864.5427"/>
</g>
<!-- accounts_tasks_assignment_assigned_to -->
<g id="node15" class="node">
<title>accounts_tasks_assignment_assigned_to</title>
<path fill="none" stroke="#000000" d="M1224.8433,-1092.0321C1224.8433,-1092.0321 1484.8433,-1092.0321 1484.8433,-1092.0321 1490.8433,-1092.0321 1496.8433,-1098.0321 1496.8433,-1104.0321 1496.8433,-1104.0321 1496.8433,-1167.0321 1496.8433,-1167.0321 1496.8433,-1173.0321 1490.8433,-1179.0321 1484.8433,-1179.0321 1484.8433,-1179.0321 1224.8433,-1179.0321 1224.8433,-1179.0321 1218.8433,-1179.0321 1212.8433,-1173.0321 1212.8433,-1167.0321 1212.8433,-1167.0321 1212.8433,-1104.0321 1212.8433,-1104.0321 1212.8433,-1098.0321 1218.8433,-1092.0321 1224.8433,-1092.0321"/>
<text text-anchor="start" x="1219.8433" y="-1158.6321" font-family="Helvetica,sans-Serif" font-weight="bold" font-size="13.00" fill="#000000">accounts_tasks_assignment_assigned_to</text>
<polyline fill="none" stroke="#000000" points="1212.8433,-1149.0321 1496.8433,-1149.0321 "/>
<text text-anchor="start" x="1276.8433" y="-1134.9321" font-family="Helvetica,sans-Serif" font-size="12.00" fill="#000000">id* </text>
<text text-anchor="start" x="1294.8433" y="-1134.9321" font-family="Helvetica,sans-Serif" font-weight="bold" font-size="12.00" fill="#000000">integer</text>
<text text-anchor="start" x="1276.8433" y="-1117.9321" font-family="Helvetica,sans-Serif" font-size="12.00" fill="#000000">tasks_assignment_id </text>
<text text-anchor="start" x="1392.8433" y="-1117.9321" font-family="Helvetica,sans-Serif" font-weight="bold" font-size="12.00" fill="#000000">integer</text>
<text text-anchor="start" x="1276.8433" y="-1100.9321" font-family="Helvetica,sans-Serif" font-size="12.00" fill="#000000">employee_id </text>
<text text-anchor="start" x="1349.8433" y="-1100.9321" font-family="Helvetica,sans-Serif" font-weight="bold" font-size="12.00" fill="#000000">integer</text>
</g>
<!-- accounts_tasks_assignment_assigned_to&#45;&gt;accounts_employee -->
<g id="edge12" class="edge">
<title>accounts_tasks_assignment_assigned_to&#45;&gt;accounts_employee</title>
<path fill="none" stroke="#000000" stroke-width=".9" d="M1375.4082,-1091.9463C1387.9262,-1065.4152 1404.3464,-1030.6138 1419.3565,-998.8011"/>
<polygon fill="#000000" stroke="#000000" stroke-width=".9" points="1422.0551,-999.6433 1422.9366,-991.2133 1416.9905,-997.2536 1422.0551,-999.6433"/>
</g>
<!-- accounts_tasks_assignment_assigned_to&#45;&gt;accounts_tasks_assignment -->
<g id="edge13" class="edge">
<title>accounts_tasks_assignment_assigned_to&#45;&gt;accounts_tasks_assignment</title>
<path fill="none" stroke="#000000" stroke-width=".9" d="M1268.8572,-1091.9399C1249.9231,-1082.3409 1229.9917,-1072.2363 1211.4587,-1062.8407"/>
<polygon fill="#000000" stroke="#000000" stroke-width=".9" points="1212.5594,-1060.2595 1204.1579,-1059.1394 1210.0272,-1065.2543 1212.5594,-1060.2595"/>
</g>
<!-- accounts_employeetasks -->
<g id="node16" class="node">
<title>accounts_employeetasks</title>
<path fill="none" stroke="#000000" d="M909.7704,-627.0432C909.7704,-627.0432 1062.7704,-627.0432 1062.7704,-627.0432 1068.7704,-627.0432 1074.7704,-633.0432 1074.7704,-639.0432 1074.7704,-639.0432 1074.7704,-685.0432 1074.7704,-685.0432 1074.7704,-691.0432 1068.7704,-697.0432 1062.7704,-697.0432 1062.7704,-697.0432 909.7704,-697.0432 909.7704,-697.0432 903.7704,-697.0432 897.7704,-691.0432 897.7704,-685.0432 897.7704,-685.0432 897.7704,-639.0432 897.7704,-639.0432 897.7704,-633.0432 903.7704,-627.0432 909.7704,-627.0432"/>
<text text-anchor="start" x="905.2704" y="-676.6432" font-family="Helvetica,sans-Serif" font-weight="bold" font-size="13.00" fill="#000000">accounts_employeetasks</text>
<polyline fill="none" stroke="#000000" points="897.7704,-667.0432 1074.7704,-667.0432 "/>
<text text-anchor="start" x="921.2704" y="-653.4432" font-family="Helvetica,sans-Serif" font-size="12.00" fill="#000000">id* </text>
<text text-anchor="start" x="939.2704" y="-653.4432" font-family="Helvetica,sans-Serif" font-weight="bold" font-size="12.00" fill="#000000">integer</text>
<text text-anchor="start" x="921.2704" y="-636.4432" font-family="Helvetica,sans-Serif" font-size="12.00" fill="#000000">task_id </text>
<text text-anchor="start" x="963.2704" y="-636.4432" font-family="Helvetica,sans-Serif" font-weight="bold" font-size="12.00" fill="#000000">integer</text>
</g>
<!-- accounts_employeetasks&#45;&gt;accounts_tasks -->
<g id="edge14" class="edge">
<title>accounts_employeetasks&#45;&gt;accounts_tasks</title>
<path fill="none" stroke="#000000" stroke-width=".9" d="M1051.3751,-697.113C1073.8912,-709.2417 1099.3777,-722.9704 1122.9098,-735.6464"/>
<polygon fill="#000000" stroke="#000000" stroke-width=".9" points="1121.7736,-738.2148 1130.1447,-739.5436 1124.4294,-733.2845 1121.7736,-738.2148"/>
</g>
<!-- accounts_employeetasks_employee_task -->
<g id="node17" class="node">
<title>accounts_employeetasks_employee_task</title>
<path fill="none" stroke="#000000" d="M752.7238,-838.7816C752.7238,-838.7816 1009.7238,-838.7816 1009.7238,-838.7816 1015.7238,-838.7816 1021.7238,-844.7816 1021.7238,-850.7816 1021.7238,-850.7816 1021.7238,-913.7816 1021.7238,-913.7816 1021.7238,-919.7816 1015.7238,-925.7816 1009.7238,-925.7816 1009.7238,-925.7816 752.7238,-925.7816 752.7238,-925.7816 746.7238,-925.7816 740.7238,-919.7816 740.7238,-913.7816 740.7238,-913.7816 740.7238,-850.7816 740.7238,-850.7816 740.7238,-844.7816 746.7238,-838.7816 752.7238,-838.7816"/>
<text text-anchor="start" x="748.2238" y="-905.3816" font-family="Helvetica,sans-Serif" font-weight="bold" font-size="13.00" fill="#000000">accounts_employeetasks_employee_task</text>
<polyline fill="none" stroke="#000000" points="740.7238,-895.7816 1021.7238,-895.7816 "/>
<text text-anchor="start" x="803.2238" y="-881.6816" font-family="Helvetica,sans-Serif" font-size="12.00" fill="#000000">id* </text>
<text text-anchor="start" x="821.2238" y="-881.6816" font-family="Helvetica,sans-Serif" font-weight="bold" font-size="12.00" fill="#000000">integer</text>
<text text-anchor="start" x="803.2238" y="-864.6816" font-family="Helvetica,sans-Serif" font-size="12.00" fill="#000000">employeetasks_id </text>
<text text-anchor="start" x="903.2238" y="-864.6816" font-family="Helvetica,sans-Serif" font-weight="bold" font-size="12.00" fill="#000000">integer</text>
<text text-anchor="start" x="803.2238" y="-847.6816" font-family="Helvetica,sans-Serif" font-size="12.00" fill="#000000">tasks_assignment_id </text>
<text text-anchor="start" x="919.2238" y="-847.6816" font-family="Helvetica,sans-Serif" font-weight="bold" font-size="12.00" fill="#000000">integer</text>
</g>
<!-- accounts_employeetasks_employee_task&#45;&gt;accounts_tasks_assignment -->
<g id="edge15" class="edge">
<title>accounts_employeetasks_employee_task&#45;&gt;accounts_tasks_assignment</title>
<path fill="none" stroke="#000000" stroke-width=".9" d="M959.4008,-925.9646C993.0992,-944.7943 1032.1989,-966.6421 1064.9268,-984.9295"/>
<polygon fill="#000000" stroke="#000000" stroke-width=".9" points="1063.8885,-987.5568 1072.238,-989.0148 1066.6201,-982.6682 1063.8885,-987.5568"/>
</g>
<!-- accounts_employeetasks_employee_task&#45;&gt;accounts_employeetasks -->
<g id="edge16" class="edge">
<title>accounts_employeetasks_employee_task&#45;&gt;accounts_employeetasks</title>
<path fill="none" stroke="#000000" stroke-width=".9" d="M901.9776,-838.7696C920.532,-799.8689 947.559,-743.2048 965.9728,-704.5988"/>
<polygon fill="#000000" stroke="#000000" stroke-width=".9" points="968.6188,-705.5551 969.5356,-697.129 963.5643,-703.1442 968.6188,-705.5551"/>
</g>
</g>
</svg>
